<svg width="21" height="22" viewBox="0 0 21 22" fill="none" xmlns="http://www.w3.org/2000/svg">
<circle cx="10.5" cy="10.7529" r="10.5" fill="#0084EB"/>
<path d="M8.2522 6.16121C10.0807 6.00225 11.9196 6.00225 13.7482 6.16121L14.6291 6.23779C15.2156 6.28877 15.7179 6.63857 15.9781 7.13894C16.0114 7.20296 15.9865 7.28046 15.9251 7.31844L12.27 9.58114C11.4861 10.0664 10.4976 10.0766 9.70385 9.60758L6.02428 7.43329C5.96483 7.39816 5.93755 7.32585 5.96434 7.26221C6.20243 6.69663 6.73771 6.29286 7.37123 6.23779L8.2522 6.16121Z" fill="white"/>
<path d="M5.96134 8.41244C5.87036 8.35868 5.75428 8.41654 5.74367 8.52168C5.59566 9.98913 5.63149 11.4705 5.85114 12.9312C5.96694 13.7013 6.59543 14.2916 7.37123 14.3591L8.2522 14.4357C10.0807 14.5946 11.9196 14.5946 13.7482 14.4357L14.6291 14.3591C15.4049 14.2916 16.0334 13.7013 16.1492 12.9312C16.3753 11.4279 16.4066 9.90278 16.2433 8.39343C16.2318 8.28754 16.1138 8.23075 16.0232 8.28681L12.7305 10.3251C11.6699 10.9817 10.3326 10.9955 9.25871 10.3609L5.96134 8.41244Z" fill="white"/>
</svg>
