<svg width="24" height="24" viewBox="0 0 24 24" fill="none" xmlns="http://www.w3.org/2000/svg">
<path d="M12.0002 8.74956C10.2053 8.74956 8.75018 10.2046 8.75018 11.9996C8.75018 13.7945 10.2053 15.2496 12.0002 15.2496C13.7951 15.2496 15.2502 13.7945 15.2502 11.9996C15.2502 10.2046 13.7951 8.74956 12.0002 8.74956Z" fill="#006EC3"/>
<path fill-rule="evenodd" clip-rule="evenodd" d="M6.76972 3.08103C10.2178 2.69565 13.7825 2.69565 17.2307 3.08103C19.1291 3.2932 20.6603 4.78898 20.8831 6.69403C21.2954 10.219 21.2954 13.7801 20.8831 17.3051C20.6603 19.2101 19.1291 20.7059 17.2307 20.9181C13.7825 21.3035 10.2178 21.3035 6.76972 20.9181C4.87132 20.7059 3.34013 19.2101 3.11732 17.3051C2.70504 13.7801 2.70504 10.219 3.11732 6.69403C3.34013 4.78898 4.87132 3.2932 6.76972 3.08103ZM17.0002 5.99956C16.4479 5.99956 16.0002 6.44727 16.0002 6.99956C16.0002 7.55184 16.4479 7.99956 17.0002 7.99956C17.5525 7.99956 18.0002 7.55184 18.0002 6.99956C18.0002 6.44727 17.5525 5.99956 17.0002 5.99956ZM7.25018 11.9996C7.25018 9.3762 9.37683 7.24956 12.0002 7.24956C14.6235 7.24956 16.7502 9.3762 16.7502 11.9996C16.7502 14.6229 14.6235 16.7496 12.0002 16.7496C9.37683 16.7496 7.25018 14.6229 7.25018 11.9996Z" fill="#006EC3"/>
</svg>
