<svg width="21" height="22" viewBox="0 0 21 22" fill="none" xmlns="http://www.w3.org/2000/svg">
<circle cx="10.5" cy="10.7529" r="10.5" fill="#0084EB"/>
<path d="M8.10417 10.0863C8.10417 9.03922 8.95296 8.19043 10 8.19043C11.047 8.19043 11.8958 9.03922 11.8958 10.0863C11.8958 11.1333 11.047 11.9821 10 11.9821C8.95296 11.9821 8.10417 11.1333 8.10417 10.0863Z" fill="white"/>
<path fill-rule="evenodd" clip-rule="evenodd" d="M5.20123 9.43141C5.40169 6.99952 7.4339 5.12793 9.87403 5.12793H10.126C12.5661 5.12793 14.5983 6.99952 14.7988 9.43141C14.9067 10.7408 14.5023 12.0409 13.6706 13.058L10.8747 16.4773C10.4226 17.0302 9.57741 17.0302 9.12534 16.4773L6.32939 13.058C5.49776 12.0409 5.09331 10.7408 5.20123 9.43141ZM10 7.31543C8.46971 7.31543 7.22917 8.55597 7.22917 10.0863C7.22917 11.6166 8.46971 12.8571 10 12.8571C11.5303 12.8571 12.7708 11.6166 12.7708 10.0863C12.7708 8.55597 11.5303 7.31543 10 7.31543Z" fill="white"/>
</svg>
