<svg width="21" height="22" viewBox="0 0 21 22" fill="none" xmlns="http://www.w3.org/2000/svg">
<circle cx="10.5" cy="10.7529" r="10.5" fill="#0084EB"/>
<path d="M12.4967 15.4244C10.0237 14.375 8.03451 12.4392 6.91661 10.0044L6.91616 10.0034L6.61394 9.33863C6.20051 8.42925 6.50582 7.35425 7.33552 6.79792L8.11301 6.2766C8.36405 6.10827 8.7021 6.15958 8.89188 6.39483L10.3093 8.1518C10.5175 8.40985 10.469 8.78932 10.2026 8.98673L9.46922 9.53023C10.1572 10.9249 11.2895 12.0572 12.6841 12.7451L13.2276 12.0117C13.425 11.7453 13.8045 11.6968 14.0625 11.905L15.8194 13.3224C16.0547 13.5122 16.106 13.8503 15.9376 14.1014L15.4195 14.8736C14.8663 15.6981 13.8002 16.0051 12.8932 15.601L12.4967 15.4244Z" fill="white"/>
<path d="M12.0207 9.50244C12.0207 9.61847 12.0668 9.72975 12.1488 9.8118C12.2309 9.89385 12.3421 9.93994 12.4582 9.93994H14.6914C14.933 9.93994 15.1289 9.74406 15.1289 9.50244C15.1289 9.26081 14.933 9.06494 14.6914 9.06494H13.5144L15.3571 7.22218C15.528 7.05133 15.528 6.77432 15.3571 6.60346C15.1863 6.43261 14.9093 6.43261 14.7384 6.60346L12.8957 8.44622V7.26919C12.8957 7.02757 12.6998 6.83169 12.4582 6.83169C12.2165 6.83169 12.0207 7.02757 12.0207 7.26919V9.50244Z" fill="white"/>
</svg>
