<svg width="200" height="200" viewBox="0 0 200 200" fill="none" xmlns="http://www.w3.org/2000/svg">
<path d="M189.76 56.8977C198.327 79.1423 203.025 110.873 195.045 133.333C187.065 155.794 171.306 174.679 150.603 186.593C129.9 198.506 105.611 202.666 82.1053 198.324C58.5996 193.982 37.4196 181.423 22.3751 162.906C7.33048 144.388 -0.591349 121.128 0.0344307 97.3094C0.660211 73.4904 9.79253 50.6756 25.7888 32.9685C41.7851 15.2615 63.5954 3.82433 87.297 0.71425C110.998 -2.39583 139.088 4.89288 159.137 17.8701L144.148 32.7878C128.109 22.406 108.879 18.0691 89.918 20.5572C70.9568 23.0453 53.5085 32.195 40.7115 46.3606C27.9145 60.5263 20.6086 78.7781 20.108 97.8333C19.6073 116.889 25.9448 135.497 37.9805 150.31C50.0161 165.124 66.9601 175.171 85.7647 178.645C104.569 182.119 124 178.791 140.563 169.26C157.126 159.729 169.733 144.621 176.117 126.652C182.501 108.684 182.243 89.0349 175.389 71.2392L189.76 56.8977Z" fill="white"/>
<path d="M189.76 56.8977C198.327 79.1423 203.025 110.873 195.045 133.333C187.065 155.794 171.306 174.679 150.603 186.593C129.9 198.506 105.611 202.666 82.1053 198.324C58.5996 193.982 37.4196 181.423 22.3751 162.906C7.33048 144.388 -0.591349 121.128 0.0344307 97.3094C0.660211 73.4904 9.79253 50.6756 25.7888 32.9685C41.7851 15.2615 63.5954 3.82433 87.297 0.71425C110.998 -2.39583 139.088 4.89288 159.137 17.8701L144.148 32.7878C128.109 22.406 108.879 18.0691 89.918 20.5572C70.9568 23.0453 53.5085 32.195 40.7115 46.3606C27.9145 60.5263 20.6086 78.7781 20.108 97.8333C19.6073 116.889 25.9448 135.497 37.9805 150.31C50.0161 165.124 66.9601 175.171 85.7647 178.645C104.569 182.119 124 178.791 140.563 169.26C157.126 159.729 169.733 144.621 176.117 126.652C182.501 108.684 182.243 89.0349 175.389 71.2392L189.76 56.8977Z" fill="#90C736"/>
<line x1="10.5" y1="-10.5" x2="64.467" y2="-10.5" transform="matrix(0.708274 0.705937 -0.708274 0.705937 34.1367 84.916)" stroke="white" stroke-width="21" stroke-linecap="round"/>
<line x1="10.5" y1="-10.5" x2="64.467" y2="-10.5" transform="matrix(0.708274 0.705937 -0.708274 0.705937 34.1367 84.916)" stroke="#90C736" stroke-width="21" stroke-linecap="round"/>
<line x1="10.5" y1="-10.5" x2="148.549" y2="-10.5" transform="matrix(0.708274 -0.705937 0.708274 0.705937 87.3496 138.154)" stroke="white" stroke-width="21" stroke-linecap="round"/>
<line x1="10.5" y1="-10.5" x2="148.549" y2="-10.5" transform="matrix(0.708274 -0.705937 0.708274 0.705937 87.3496 138.154)" stroke="#90C736" stroke-width="21" stroke-linecap="round"/>
</svg>
