<svg width="54" height="45" viewBox="0 0 54 45" fill="none" xmlns="http://www.w3.org/2000/svg">
<path d="M38.5333 39.1665L36.9693 28.1501C36.7476 26.5897 35.8857 25.1543 34.5454 24.1138C33.2052 23.0733 31.4791 22.4994 29.6917 22.5H24.3056C22.519 22.5004 20.7941 23.0748 19.4549 24.1152C18.1157 25.1556 17.2544 26.5904 17.0329 28.1501L15.4664 39.1665C15.3805 39.7718 15.4418 40.3862 15.6465 40.9689C15.8511 41.5517 16.1944 42.0895 16.6534 42.5466C17.1124 43.0037 17.6767 43.3697 18.3089 43.6202C18.941 43.8707 19.6265 44.0001 20.3198 43.9996H33.6824C34.3755 43.9998 35.0607 43.8702 35.6925 43.6196C36.3244 43.3689 36.8884 43.0029 37.3471 42.5458C37.8059 42.0887 38.1489 41.551 38.3534 40.9684C38.5579 40.3858 38.6192 39.7716 38.5333 39.1665V39.1665Z" stroke="#434540" stroke-width="2" stroke-linecap="round" stroke-linejoin="round"/>
<path d="M27.0013 13.8996C31.0503 13.8996 34.3326 11.012 34.3326 7.44982C34.3326 3.88768 31.0503 1 27.0013 1C22.9523 1 19.6699 3.88768 19.6699 7.44982C19.6699 11.012 22.9523 13.8996 27.0013 13.8996Z" stroke="#434540" stroke-width="2"/>
<path d="M7.45105 20.3502C10.1504 20.3502 12.3386 18.425 12.3386 16.0501C12.3386 13.6752 10.1504 11.75 7.45105 11.75C4.75172 11.75 2.56348 13.6752 2.56348 16.0501C2.56348 18.425 4.75172 20.3502 7.45105 20.3502Z" stroke="#434540" stroke-width="2"/>
<path d="M46.5516 20.3502C49.251 20.3502 51.4392 18.425 51.4392 16.0501C51.4392 13.6752 49.251 11.75 46.5516 11.75C43.8523 11.75 41.6641 13.6752 41.6641 16.0501C41.6641 18.425 43.8523 20.3502 46.5516 20.3502Z" stroke="#434540" stroke-width="2"/>
<path d="M7.44976 26.8008H6.70196C5.54498 26.8007 4.42546 27.1616 3.54257 27.8195C2.65969 28.4773 2.07069 29.3894 1.88037 30.3934L1.06658 34.6934C0.9498 35.3094 0.986968 35.9405 1.1755 36.5426C1.36403 37.1448 1.69941 37.7036 2.15829 38.1801C2.61718 38.6567 3.18856 39.0396 3.83269 39.3022C4.47683 39.5648 5.17825 39.7007 5.88818 39.7007H14.7811" stroke="#434540" stroke-width="2" stroke-linecap="round" stroke-linejoin="round"/>
<path d="M46.5511 26.8008H47.2989C48.4559 26.8007 49.5754 27.1616 50.4583 27.8195C51.3412 28.4773 51.9302 29.3894 52.1205 30.3934L52.9343 34.6934C53.0511 35.3094 53.0139 35.9405 52.8254 36.5426C52.6368 37.1448 52.3014 37.7036 51.8426 38.1801C51.3837 38.6567 50.8123 39.0396 50.1682 39.3022C49.524 39.5648 48.8226 39.7007 48.1127 39.7007H39.2197" stroke="#434540" stroke-width="2" stroke-linecap="round" stroke-linejoin="round"/>
</svg>
