<svg width="176" height="176" viewBox="0 0 176 176" fill="none" xmlns="http://www.w3.org/2000/svg">
<path d="M176 88C176 136.601 136.601 176 88 176C39.3989 176 0 136.601 0 88C0 39.3989 39.3989 0 88 0C136.601 0 176 39.3989 176 88ZM17.6 88C17.6 126.881 49.1192 158.4 88 158.4C126.881 158.4 158.4 126.881 158.4 88C158.4 49.1192 126.881 17.6 88 17.6C49.1192 17.6 17.6 49.1192 17.6 88Z" fill="#C4C4C4" fill-opacity="0.3"/>
<path d="M167.2 88C172.06 88 176.046 91.9498 175.56 96.7856C174.056 111.78 168.719 126.191 159.997 138.6C149.583 153.419 134.85 164.662 117.809 170.798C100.768 176.933 82.249 177.66 64.7792 172.881C47.3094 168.102 31.7397 158.049 20.1948 144.093C8.64997 130.138 1.6923 112.96 0.271274 94.9044C-1.14976 76.8485 3.03508 58.7939 12.2547 43.2043C21.4743 27.6148 35.2796 15.2497 51.7867 7.79651C65.611 1.55462 80.7662 -0.987665 95.7772 0.344261C100.618 0.773811 103.751 5.42883 102.841 10.2029C101.93 14.9769 97.3171 18.0502 92.4668 17.7418C81.0348 17.015 69.5503 19.0868 59.0294 23.8372C45.8237 29.7998 34.7795 39.6919 27.4038 52.1635C20.0281 64.6351 16.6802 79.0788 17.817 93.5235C18.9538 107.968 24.52 121.71 33.7559 132.875C42.9917 144.039 55.4475 152.081 69.4233 155.905C83.3992 159.728 98.2144 159.146 111.847 154.238C125.48 149.33 137.266 140.335 145.598 128.48C152.235 119.036 156.423 108.143 157.851 96.7774C158.457 91.9552 162.34 88 167.2 88Z" fill="#3D7800"/>
<path d="M62.2526 68.1055L44.0701 108.873H38.2203L56.3426 69.5529H32.5816V64.9695H62.2526V68.1055ZM95.2104 76.4279C95.2104 78.619 94.6275 80.569 93.4615 82.2777C92.3157 83.9864 90.7578 85.3232 88.7877 86.2881C91.0794 87.2731 92.8886 88.7104 94.2154 90.6C95.5622 92.4896 96.2356 94.6305 96.2356 97.0227C96.2356 100.822 94.9491 103.847 92.376 106.099C89.823 108.35 86.4559 109.476 82.2746 109.476C78.0531 109.476 74.6658 108.35 72.1128 106.099C69.5799 103.827 68.3135 100.802 68.3135 97.0227C68.3135 94.6506 68.9568 92.5097 70.2433 90.6C71.55 88.6903 73.3491 87.2429 75.6408 86.2579C73.6909 85.293 72.153 83.9562 71.0273 82.2475C69.9016 80.5388 69.3387 78.5989 69.3387 76.4279C69.3387 72.729 70.5248 69.7941 72.8968 67.623C75.2689 65.452 78.3948 64.3665 82.2746 64.3665C86.1342 64.3665 89.2501 65.452 91.6222 67.623C94.0143 69.7941 95.2104 72.729 95.2104 76.4279ZM90.6572 96.9021C90.6572 94.4496 89.8733 92.4494 88.3053 90.9016C86.7574 89.3537 84.7271 88.5797 82.2143 88.5797C79.7015 88.5797 77.6812 89.3436 76.1534 90.8714C74.6457 92.3992 73.8919 94.4094 73.8919 96.9021C73.8919 99.3948 74.6256 101.355 76.0931 102.782C77.5807 104.209 79.6412 104.923 82.2746 104.923C84.8879 104.923 86.9383 104.209 88.4259 102.782C89.9135 101.335 90.6572 99.3747 90.6572 96.9021ZM82.2746 68.9498C80.0834 68.9498 78.3044 69.6333 76.9374 71.0002C75.5905 72.3471 74.9171 74.1865 74.9171 76.5183C74.9171 78.7497 75.5805 80.5589 76.9072 81.946C78.2541 83.3129 80.0432 83.9964 82.2746 83.9964C84.5059 83.9964 86.285 83.3129 87.6117 81.946C88.9586 80.5589 89.632 78.7497 89.632 76.5183C89.632 74.287 88.9385 72.4677 87.5514 71.0605C86.1644 69.6534 84.4054 68.9498 82.2746 68.9498ZM102.779 73.4125C102.779 70.7791 103.613 68.6081 105.282 66.8994C106.97 65.1907 109.131 64.3363 111.765 64.3363C114.438 64.3363 116.599 65.2007 118.248 66.9295C119.916 68.6382 120.75 70.8595 120.75 73.5934V75.7343C120.75 78.3878 119.906 80.5589 118.218 82.2475C116.549 83.916 114.418 84.7502 111.825 84.7502C109.212 84.7502 107.051 83.916 105.342 82.2475C103.633 80.5589 102.779 78.3175 102.779 75.5233V73.4125ZM106.94 75.7343C106.94 77.3023 107.382 78.5989 108.267 79.6241C109.151 80.6293 110.337 81.1318 111.825 81.1318C113.252 81.1318 114.398 80.6393 115.263 79.6543C116.147 78.6693 116.589 77.3224 116.589 75.6137V73.4125C116.589 71.8445 116.157 70.5479 115.293 69.5227C114.428 68.4975 113.252 67.9849 111.765 67.9849C110.277 67.9849 109.101 68.4975 108.237 69.5227C107.372 70.5479 106.94 71.8847 106.94 73.5331V75.7343ZM124.158 98.1082C124.158 95.4748 124.992 93.3138 126.661 91.6252C128.349 89.9165 130.51 89.0622 133.144 89.0622C135.777 89.0622 137.938 89.9065 139.627 91.5951C141.315 93.2837 142.159 95.5251 142.159 98.3193V100.46C142.159 103.094 141.315 105.265 139.627 106.973C137.958 108.662 135.817 109.506 133.204 109.506C130.591 109.506 128.43 108.672 126.721 107.004C125.012 105.315 124.158 103.074 124.158 100.279V98.1082ZM128.319 100.46C128.319 102.048 128.761 103.355 129.646 104.38C130.53 105.385 131.716 105.888 133.204 105.888C134.651 105.888 135.807 105.395 136.672 104.41C137.536 103.405 137.968 102.048 137.968 100.34V98.1082C137.968 96.5202 137.526 95.2236 136.641 94.2184C135.777 93.2133 134.611 92.7108 133.144 92.7108C131.716 92.7108 130.55 93.2133 129.646 94.2184C128.761 95.2035 128.319 96.5403 128.319 98.2289V100.46ZM113.091 105.556L109.925 103.566L131.364 69.2513L134.531 71.2415L113.091 105.556Z" fill="#669E00"/>
</svg>
