<svg width="52" height="51" viewBox="0 0 52 51" fill="none" xmlns="http://www.w3.org/2000/svg">
<path d="M10 9C11.6569 9 13 7.65685 13 6C13 4.34315 11.6569 3 10 3C8.34315 3 7 4.34315 7 6C7 7.65685 8.34315 9 10 9Z" stroke="#434540" stroke-width="2" stroke-miterlimit="10"/>
<path d="M4 19.0005C4 19.0005 5 14.6895 7 13.6895C9 12.6895 11 12.6895 13 13.6895C15 14.6895 16 19.0005 16 19.0005" stroke="#434540" stroke-width="2" stroke-miterlimit="10" stroke-linecap="round" stroke-linejoin="round"/>
<path d="M44.9922 18.3242C46.649 18.3242 47.9922 16.9811 47.9922 15.3242C47.9922 13.6674 46.649 12.3242 44.9922 12.3242C43.3353 12.3242 41.9922 13.6674 41.9922 15.3242C41.9922 16.9811 43.3353 18.3242 44.9922 18.3242Z" stroke="#434540" stroke-width="2" stroke-miterlimit="10"/>
<path d="M38.9922 28.3247C38.9922 28.3247 39.9922 24.0137 41.9922 23.0137C43.9922 22.0137 45.9922 22.0137 47.9922 23.0137C49.9922 24.0137 50.9922 28.3237 50.9922 28.3237" stroke="#434540" stroke-width="2" stroke-miterlimit="10" stroke-linecap="round" stroke-linejoin="round"/>
<path d="M18.9932 39.0078C20.65 39.0078 21.9932 37.6647 21.9932 36.0078C21.9932 34.351 20.65 33.0078 18.9932 33.0078C17.3363 33.0078 15.9932 34.351 15.9932 36.0078C15.9932 37.6647 17.3363 39.0078 18.9932 39.0078Z" stroke="#434540" stroke-width="2" stroke-miterlimit="10"/>
<path d="M12.9932 49.0083C12.9932 49.0083 13.9932 44.6973 15.9932 43.6973C17.9932 42.6973 19.9932 42.6973 21.9932 43.6973C23.9932 44.6973 24.9932 49.0073 24.9932 49.0073" stroke="#434540" stroke-width="2" stroke-miterlimit="10" stroke-linecap="round" stroke-linejoin="round"/>
<path d="M41.5522 9.136C37.3332 4.159 31.0352 1 24.0002 1C21.2302 1 18.5762 1.49 16.1172 2.387" stroke="#434540" stroke-width="2" stroke-miterlimit="10" stroke-linecap="round" stroke-linejoin="round"/>
<path d="M28.4326 46.5739C36.6456 44.9699 43.2946 38.9969 45.8596 31.1719" stroke="#434540" stroke-width="2" stroke-miterlimit="10" stroke-linecap="round" stroke-linejoin="round"/>
<path d="M1.087 21.9883C1.02898 22.6574 0.999957 23.3287 1 24.0003C1 31.9743 5.058 39.0003 11.222 43.1273" stroke="#434540" stroke-width="2" stroke-miterlimit="10" stroke-linecap="round" stroke-linejoin="round"/>
</svg>
