<svg width="44" height="46" viewBox="0 0 44 46" fill="none" xmlns="http://www.w3.org/2000/svg">
<path d="M37.714 37.8307H6.28543C5.45215 37.8296 4.65324 37.3864 4.06402 36.5984C3.4748 35.8103 3.14341 34.7418 3.14258 33.6273V4.20342C3.14341 3.08894 3.4748 2.02043 4.06402 1.23238C4.65324 0.444328 5.45215 0.00111281 6.28543 0H37.714C38.5473 0.00111281 39.3462 0.444328 39.9354 1.23238C40.5246 2.02043 40.856 3.08894 40.8569 4.20342V33.6273C40.8556 34.7416 40.5241 35.8098 39.935 36.5978C39.3458 37.3857 38.5472 37.8291 37.714 37.8307ZM6.28543 4.20342V33.6273H37.714V4.20342H6.28543Z" fill="#434540"/>
<path d="M0 41.7969H44V45.9995H0V41.7969Z" fill="#434540"/>
</svg>
