<svg width="56" height="49" viewBox="0 0 56 49" fill="none" xmlns="http://www.w3.org/2000/svg">
<path d="M5.29578 4.19193C2.10376 8.08164 0.389984 12.4442 0.389984 19.5161C0.389984 31.9603 8.00434 43.1139 19.0772 48.6285L21.8447 43.729C11.5094 37.3149 9.48879 28.9915 8.68304 23.7436C10.3472 24.732 12.5259 25.0769 14.6611 24.8494C20.2518 24.2556 24.6586 18.9899 24.6586 12.4442C24.6586 9.14382 23.5159 5.97858 21.4817 3.64483C19.4476 1.31109 16.6887 0 13.812 0C10.4867 0 7.30706 1.74219 5.29578 4.19193ZM36.2862 4.19193C33.0942 8.08164 31.3805 12.4442 31.3805 19.5161C31.3805 31.9603 38.9948 43.1139 50.0677 48.6285L52.8352 43.729C42.4998 37.3149 40.4793 28.9915 39.6735 23.7436C41.3377 24.732 43.5163 25.0769 45.6516 24.8494C51.2423 24.2556 55.646 18.9899 55.646 12.4442C55.646 9.14382 54.5032 5.97858 52.4691 3.64483C50.4349 1.31109 47.676 0 44.7993 0C41.4741 0 38.2944 1.74219 36.2831 4.19193H36.2862Z" fill="black"/>
</svg>
