<svg width="56" height="47" viewBox="0 0 56 47" fill="none" xmlns="http://www.w3.org/2000/svg">
<path d="M51.107 4.05339C54.2907 7.81274 55.9999 12.0291 55.9999 18.864C55.9999 30.8912 48.4056 41.6709 37.3618 47.0007L34.6016 42.2654C44.9098 36.0663 46.925 28.0218 47.7287 22.9498C46.0689 23.9051 43.896 24.2384 41.7663 24.0185C36.1903 23.4446 31.7951 18.3554 31.7951 12.0291C31.7951 8.83932 32.9349 5.78016 34.9637 3.52463C36.9925 1.2691 39.7441 0.00195312 42.6132 0.00195312C45.9298 0.00195312 49.101 1.68576 51.107 4.05339ZM20.198 4.05339C23.3817 7.81274 25.0909 12.0291 25.0909 18.864C25.0909 30.8912 17.4966 41.6709 6.45278 47.0007L3.69261 42.2654C14.0008 36.0663 16.016 28.0218 16.8197 22.9498C15.1599 23.9051 12.9869 24.2384 10.8573 24.0185C5.28133 23.4446 0.88916 18.3554 0.88916 12.0291C0.88916 8.83932 2.02893 5.78016 4.05772 3.52463C6.08652 1.2691 8.83816 0.00195313 11.7073 0.00195312C15.0239 0.00195312 18.1951 1.68576 20.2011 4.05339H20.198Z" fill="black"/>
</svg>
